<svg xmlns="http://www.w3.org/2000/svg" viewBox="0 0 64 64">
  <defs>
    <linearGradient id="bg" x1="8" y1="4" x2="58" y2="62" gradientUnits="userSpaceOnUse">
      <stop stop-color="#1a237e"/>
      <stop offset="1" stop-color="#0f766e"/>
    </linearGradient>
    <linearGradient id="metal" x1="17" y1="15" x2="47" y2="50" gradientUnits="userSpaceOnUse">
      <stop stop-color="#67e8f9"/>
      <stop offset="1" stop-color="#14b8a6"/>
    </linearGradient>
  </defs>
  <rect width="64" height="64" rx="15" fill="url(#bg)"/>
  <!-- Industrial gear -->
  <path fill="url(#metal)" d="m29 9 2-5h2l2 5 4 1 4-3 3 3-3 4 1 4 5 2v4l-5 2-1 4 3 4-3 3-4-3-4 1-2 5h-4l-2-5-4-1-4 3-3-3 3-4-1-4-5-2v-4l5-2 1-4-3-4 3-3 4 3z"/>
  <circle cx="32" cy="22" r="10" fill="#102a57" stroke="#c4f6f2" stroke-width="2"/>
  <!-- Neural core -->
  <rect x="21" y="31" width="22" height="18" rx="5" fill="#0f294f" stroke="#67e8f9" stroke-width="2"/>
  <path d="M26 39h4m4 0h4M29 35v8m6-8v8M25 43l-4 4m18-4 4 4M25 35l-4-4m18 4 4-4" fill="none" stroke="#5eead4" stroke-linecap="round" stroke-width="2"/>
  <circle cx="21" cy="31" r="2.4" fill="#fbbf24"/><circle cx="43" cy="31" r="2.4" fill="#fbbf24"/><circle cx="21" cy="47" r="2.4" fill="#fbbf24"/><circle cx="43" cy="47" r="2.4" fill="#fbbf24"/>
</svg>
